<?xml version="1.0" standalone="no"?>
<!DOCTYPE svg PUBLIC "-//W3C//DTD SVG 20010904//EN"
 "http://www.w3.org/TR/2001/REC-SVG-20010904/DTD/svg10.dtd">
<svg version="1.0" xmlns="http://www.w3.org/2000/svg"
 width="1024.000000pt" height="1024.000000pt" viewBox="0 0 1024.000000 1024.000000"
 preserveAspectRatio="xMidYMid meet">

<g transform="translate(0.000000,1024.000000) scale(0.100000,-0.100000)"
fill="#000000" stroke="none">
<path d="M2564 8589 c-155 -11 -263 -84 -315 -215 l-24 -59 0 -2371 0 -2371
35 -68 c42 -82 103 -137 183 -165 56 -20 86 -20 2642 -20 1768 0 2600 3 2632
11 139 31 237 134 262 276 17 89 18 4668 2 4738 -25 106 -108 193 -223 231
-45 15 -269 16 -2576 17 -1390 1 -2568 -1 -2618 -4z m5121 -235 c22 -11 53
-40 69 -64 l29 -43 0 -2281 c-1 -2020 -3 -2285 -16 -2316 -20 -45 -62 -85
-112 -106 -36 -15 -234 -16 -2550 -16 -2323 0 -2513 1 -2550 16 -53 23 -84 52
-107 104 -19 43 -20 87 -19 2306 0 1653 3 2270 11 2291 19 49 56 91 102 114
l43 21 2530 -2 2530 -3 40 -21z"/>
<path d="M4064 8077 c-24 -21 -27 -30 -26 -88 3 -207 14 -439 23 -467 19 -58
102 -72 146 -24 l25 27 -6 253 c-3 140 -10 261 -16 272 -28 52 -101 66 -146
27z"/>
<path d="M6917 7943 c-2 -5 -10 -26 -17 -48 -39 -126 -147 -268 -262 -346 -52
-35 -75 -69 -48 -69 5 0 25 -13 43 -30 19 -16 44 -30 57 -30 42 0 147 90 229
198 l33 42 111 -1 c134 -1 163 -8 159 -35 -4 -23 -72 -163 -82 -169 -5 -3 -50
20 -101 50 -51 30 -101 55 -111 55 -16 0 -68 -74 -68 -98 0 -6 35 -31 78 -57
129 -77 124 -70 72 -116 -69 -60 -175 -129 -246 -159 -35 -15 -67 -30 -70 -33
-4 -3 12 -27 35 -53 22 -26 41 -51 41 -55 0 -15 39 -10 79 10 64 33 203 142
277 217 123 125 219 289 269 459 l17 60 -43 38 c-37 33 -47 37 -73 31 -32 -8
-255 -13 -268 -7 -4 2 0 19 8 38 21 52 18 59 -41 88 -58 28 -71 32 -78 20z"/>
<path d="M3043 7700 c-27 -11 -43 -40 -43 -80 0 -26 24 -56 161 -200 176 -185
201 -202 261 -177 37 15 59 63 49 103 -3 12 -81 99 -173 193 -151 155 -170
171 -200 170 -18 0 -43 -4 -55 -9z"/>
<path d="M5138 7704 c-23 -7 -306 -327 -318 -360 -23 -59 42 -124 107 -109 18
4 211 208 306 323 50 62 28 139 -43 147 -19 2 -43 1 -52 -1z"/>
<path d="M4023 7250 c-215 -23 -398 -109 -551 -258 -102 -99 -157 -176 -220
-304 -74 -153 -96 -266 -89 -457 7 -220 59 -377 175 -528 135 -178 220 -292
243 -328 41 -65 78 -177 84 -262 7 -90 20 -130 46 -143 10 -6 68 -10 130 -10
l112 0 -7 143 c-9 208 -47 406 -146 766 -27 101 -50 194 -50 207 0 27 36 64
63 64 40 0 56 -20 82 -103 65 -208 142 -530 161 -672 3 -27 8 -53 10 -57 2 -3
7 -73 10 -155 7 -207 2 -193 79 -193 l64 0 5 43 c3 23 12 121 21 217 8 96 26
228 40 293 36 176 133 554 150 586 23 46 67 54 103 21 28 -27 28 -55 -3 -171
-127 -468 -157 -620 -173 -881 l-7 -108 118 0 c115 0 119 1 142 26 20 21 25
38 25 78 0 28 7 82 15 120 26 122 77 209 295 496 55 73 115 186 146 274 53
150 53 439 -1 616 -37 119 -135 275 -249 398 -96 102 -227 180 -391 230 -164
50 -299 66 -432 52z"/>
<path d="M7363 6850 c-18 -11 -33 -22 -33 -24 0 -3 14 -25 30 -49 17 -25 30
-50 30 -55 0 -19 20 -24 55 -12 19 6 35 18 35 26 0 26 -64 134 -79 134 -3 0
-21 -9 -38 -20z"/>
<path d="M2622 6814 c-62 -26 -74 -101 -23 -146 17 -15 40 -28 50 -28 10 0 59
-12 107 -26 147 -43 211 -54 245 -42 32 11 59 53 59 91 0 53 -25 66 -221 116
-167 43 -189 47 -217 35z"/>
<path d="M5610 6808 c-41 -10 -86 -20 -100 -23 -22 -4 -77 -18 -178 -45 -68
-17 -97 -76 -65 -131 24 -41 63 -52 137 -38 114 20 339 79 362 94 31 20 40 74
20 113 -26 50 -67 57 -176 30z"/>
<path d="M7222 6794 c-27 -19 -28 -33 -1 -78 l21 -36 -189 -1 c-103 -1 -246
-2 -318 -2 l-130 -2 -3 -50 c-2 -28 1 -62 6 -75 l9 -25 277 3 c320 4 302 11
268 -97 -55 -170 -187 -315 -358 -392 -35 -16 -64 -33 -64 -38 0 -4 14 -25 30
-46 17 -21 30 -41 30 -46 0 -5 9 -13 20 -19 16 -9 35 -1 107 40 135 76 263
211 334 352 32 63 73 198 82 270 6 41 3 51 -19 78 -15 17 -25 32 -23 34 2 2
14 9 27 15 l22 12 -21 42 c-40 78 -63 92 -107 61z"/>
<path d="M7140 5683 c0 -5 -2 -107 -4 -228 -4 -271 -8 -295 -68 -387 -27 -44
-148 -138 -176 -138 -5 0 -16 -7 -23 -16 -11 -14 -6 -22 35 -61 58 -53 69 -53
167 13 114 76 161 141 198 272 16 58 20 106 21 264 0 106 3 210 7 230 5 34 3
39 -21 48 -31 12 -136 14 -136 3z"/>
<path d="M6708 5433 c-3 -131 -1 -246 4 -255 7 -14 22 -18 68 -18 32 0 64 2
72 5 10 4 13 54 11 253 l-2 247 -74 3 -74 3 -5 -238z"/>
<path d="M3701 4794 c-64 -53 -47 -147 32 -179 35 -14 91 -16 421 -14 308 2
388 5 419 17 59 23 83 87 55 147 -24 54 -32 55 -482 55 l-414 0 -31 -26z"/>
<path d="M7040 4563 c-25 -9 -47 -17 -49 -19 -9 -8 72 -215 83 -210 6 3 35 12
64 21 28 9 52 22 51 28 0 7 -15 53 -32 102 -36 101 -41 105 -117 78z"/>
<path d="M7326 4558 c-3 -7 -14 -47 -26 -88 -51 -176 -170 -327 -317 -403 -40
-21 -75 -42 -78 -47 -7 -12 56 -99 73 -99 33 -2 176 87 254 158 54 49 128 156
162 234 22 49 66 180 66 196 0 7 -109 61 -123 61 -4 0 -9 -6 -11 -12z"/>
<path d="M6841 4514 c-24 -7 -46 -16 -48 -18 -8 -7 50 -178 67 -199 3 -4 29 0
58 8 61 19 62 22 26 120 -41 113 -37 110 -103 89z"/>
<path d="M3725 4461 c-74 -31 -80 -157 -9 -190 17 -8 152 -11 445 -11 l421 0
29 29 c39 39 41 106 5 148 l-24 28 -424 2 c-232 1 -432 -2 -443 -6z"/>
<path d="M3880 4114 c0 -20 47 -88 81 -117 97 -84 266 -91 371 -16 31 22 88
103 88 125 0 8 -71 11 -270 12 -148 0 -270 -2 -270 -4z"/>
<path d="M4037 3038 c-18 -13 -19 -46 -19 -650 0 -350 3 -641 6 -647 10 -15
179 -14 194 1 7 7 12 27 12 45 0 38 9 41 36 12 10 -12 46 -35 79 -52 52 -26
71 -31 140 -31 44 -1 94 2 112 6 66 13 145 58 202 115 89 90 131 195 131 333
0 192 -82 337 -232 414 -62 31 -86 38 -159 43 -103 7 -172 -10 -248 -61 l-51
-35 0 243 c0 214 -2 245 -17 257 -23 20 -162 25 -186 7z m544 -650 c59 -33 97
-91 109 -165 23 -139 -41 -255 -157 -289 -165 -48 -299 57 -297 232 0 34 8 82
17 106 21 54 81 114 133 134 54 20 142 12 195 -18z"/>
<path d="M7210 3037 l-25 -13 -2 -625 c-2 -523 0 -629 11 -645 12 -16 27 -19
106 -19 70 0 93 3 100 15 5 8 10 97 10 198 l0 183 160 -201 160 -200 124 0
c98 0 126 3 136 15 16 19 27 4 -263 358 l-89 109 33 36 c19 20 66 70 105 112
157 165 189 203 189 224 0 20 -5 21 -118 24 l-119 3 -42 -43 c-23 -24 -94 -99
-159 -168 l-117 -124 0 377 0 377 -22 9 c-37 13 -151 12 -178 -2z"/>
<path d="M5896 2951 c-40 -27 -55 -57 -56 -113 0 -39 5 -54 29 -80 24 -27 36
-32 87 -35 69 -4 99 8 131 56 39 58 22 139 -36 174 -40 23 -118 22 -155 -2z"/>
<path d="M2406 2852 c-2 -4 -6 -57 -7 -118 -1 -60 -4 -115 -7 -122 -3 -9 -26
-12 -78 -11 -41 1 -77 -1 -80 -4 -3 -3 -8 -41 -11 -84 -4 -61 -2 -81 9 -90 7
-7 47 -13 88 -15 l75 -3 1 -222 c1 -122 5 -238 9 -259 14 -78 70 -152 144
-189 68 -34 255 -29 306 9 17 12 18 18 4 97 l-14 84 -65 -3 c-80 -4 -114 8
-140 50 -18 30 -20 51 -20 236 l0 202 109 0 c60 0 116 3 125 6 21 8 24 172 3
180 -7 2 -63 6 -123 7 l-109 2 -5 125 -5 125 -102 3 c-56 1 -104 -1 -107 -6z"/>
<path d="M3295 2616 c-74 -19 -123 -42 -172 -82 -47 -39 -86 -104 -81 -136 4
-25 68 -48 140 -50 40 -1 50 3 72 29 37 44 84 63 158 63 106 0 158 -40 158
-122 l0 -38 -62 -1 c-35 -1 -65 -1 -68 -1 -10 1 -156 -17 -190 -23 -145 -26
-240 -129 -240 -260 0 -143 72 -236 212 -271 114 -30 220 -6 303 68 l55 50 0
-44 c0 -24 5 -49 12 -56 18 -18 182 -16 198 3 9 10 11 94 8 332 -4 292 -6 322
-24 366 -27 66 -67 113 -114 137 -91 47 -257 63 -365 36z m270 -506 c1 -39
-17 -104 -36 -131 -28 -40 -91 -70 -159 -76 -50 -5 -59 -3 -87 21 -59 50 -52
130 14 169 57 33 268 46 268 17z"/>
<path d="M5485 2611 c-22 -10 -64 -44 -92 -75 l-52 -57 -3 63 -3 63 -100 3
c-85 2 -102 0 -112 -15 -18 -24 -19 -833 -1 -851 19 -19 182 -16 199 4 10 12
13 75 14 262 2 269 4 280 62 333 61 55 83 63 171 62 71 -1 84 1 92 18 15 26
23 171 12 188 -16 23 -139 24 -187 2z"/>
<path d="M6581 2614 c-133 -36 -238 -122 -294 -242 -27 -59 -31 -80 -35 -174
-7 -167 35 -278 137 -371 97 -88 240 -130 376 -110 99 14 176 53 248 125 77
76 75 91 -18 140 -38 21 -73 38 -77 38 -4 0 -21 -13 -39 -30 -55 -49 -97 -65
-174 -65 -135 0 -214 77 -223 219 -6 94 15 159 66 209 89 86 207 89 314 6 20
-16 44 -29 53 -29 33 0 145 82 145 107 0 24 -101 112 -163 142 -109 51 -213
63 -316 35z"/>
<path d="M5869 2594 c-14 -17 -13 -832 1 -849 16 -19 180 -21 198 -3 18 18 17
847 0 853 -29 10 -190 9 -199 -1z"/>
</g>
</svg>
